<?xml version="1.0" encoding="utf-8"?>
<!-- Generator: Adobe Illustrator 27.9.0, SVG Export Plug-In . SVG Version: 6.00 Build 0)  -->
<svg version="1.1" id="Layer_1" xmlns="http://www.w3.org/2000/svg" xmlns:xlink="http://www.w3.org/1999/xlink" x="0px" y="0px"
	 viewBox="0 0 1024 1024" style="enable-background:new 0 0 1024 1024;" xml:space="preserve">
<style type="text/css">
	.st0{fill:#FFD685;}
	.st1{fill:#FFFFFF;}
	.st2{fill:#C1C1C1;}
	.st3{fill:#A8A8A8;}
</style>
<path class="st0" d="M53.5,541.7C132.8,676,154.3,704.8,178.9,712.8c15.2,5,31.8,1.7,64.3,10.9c66.5,18.7,67.1,72.3,144.6,87.8
	c77.4,15.5,96-20.8,165.2,11c91.4,41.9,103.3,93.6,178.1,43.2c70.6-47.5,5.2-154.9,167.8-197.5c44.8-11.7,95.8,14.4,110.9,61.9
	c8.1,25.4,5.9,56.9-12.8,92.1c0,0.1,0,0.1-0.1,0.2c-3.2,4.7-6.5,9.4-9.9,14l-2,2.6l-2.1,2.8l-2.4,3.1c-0.7,0.8-1.3,1.6-1.8,2.3
	c-0.7,0.9-1.5,1.7-2.2,2.7c-2.2,2.8-4.4,5.3-6.7,8c-0.8,0.9-1.5,1.8-2.3,2.7c-1.5,1.7-3.1,3.5-4.6,5.2c-0.2,0.3-0.6,0.7-0.9,1
	c-1.4,1.4-2.7,2.9-4,4.3c-0.9,1-2,2.1-3,3.1c-1.3,1.3-2.5,2.7-3.8,3.9c-1.3,1.4-2.7,2.7-3.9,3.9l-3.1,3.1c-2.4,2.3-4.9,4.6-7.4,6.9
	l-0.5,0.5c-3.3,3-6.7,6-10.2,8.9c-1.2,1-2.4,2-3.6,3c-1.2,1-2.4,2.1-3.6,3c-1.3,0.9-2.4,2-3.7,2.9s-2.4,2-3.7,2.9
	c-1.3,1-2.4,2-3.7,2.9c-0.8,0.6-1.5,1-2.2,1.6c-0.7,0.5-1.4,1-2.1,1.5c-3.9,2.9-8,5.8-12,8.5c-0.8,0.7-1.7,1.3-2.7,1.8
	c-1.6,1-3.1,2.1-4.7,3.1c-0.8,0.5-1.6,1-2.4,1.5c-1.7,1-3.5,2.2-5.2,3.2c-0.8,0.5-1.6,1-2.4,1.5c-9.2,5.7-18.6,10.9-28.2,15.6
	c-1,0.6-2,1-3,1.5c-1.2,0.7-2.4,1.3-3.7,1.8c-1.7,0.8-3.3,1.6-5.1,2.4l-2.4,1c-1.3,0.6-2.5,1-3.8,1.6c-2.5,1-5,2.1-7.5,3.1
	c-2.8,1.2-5.5,2.2-8.3,3.2c-1.2,0.5-2.2,0.9-3.3,1.3c-1.2,0.5-2.4,0.8-3.6,1.3c-0.2,0.1-0.5,0.1-0.7,0.2c-1.2,0.5-2.2,0.8-3.2,1.2
	c-1.2,0.5-2.2,0.8-3.3,1.2c-1.2,0.5-2.3,0.8-3.5,1.2c-5.5,1.8-11.2,3.5-16.7,4.9c-1.4,0.3-2.7,0.6-3.9,0.9c-0.9,0.2-2,0.5-3,0.7
	c-1.3,0.2-2.4,0.6-3.7,0.8c-0.7,0.2-1.3,0.3-2,0.5c-0.9,0.2-1.7,0.3-2.7,0.6c-1,0.2-2.1,0.3-3.1,0.6c-1,0.2-2.2,0.3-3.2,0.6
	c-4.6,0.9-9.1,1.6-13.7,2.2c-0.8,0-1.5,0.1-2.2,0.2c-0.9,0.1-1.7,0.2-2.7,0.3h-0.5c-1,0.1-2.2,0.2-3.3,0.3c-0.6,0-1.2,0.1-1.7,0.1
	c-0.9,0.1-1.8,0.1-2.8,0.2c-0.3,0.1-0.7,0.1-1,0.1c-1.3,0.1-2.4,0.1-3.7,0.2H724c-1.4,0.1-2.9,0.1-4.3,0.2c-1.5,0.1-2.9,0.2-4.4,0.2
	c-0.9,0.1-1.8,0.1-2.8,0.1h-14.7c-2.8,0-5.4-0.1-8.2-0.1h-1.2c-2.4,0-4.7,0-7.2-0.1H680c-5.2-0.1-10.4-0.3-15.5-0.6
	c-0.9,0-2-0.1-3-0.1c-2.2-0.1-4.3-0.2-6.5-0.3c-2.5-0.1-5.1-0.3-7.6-0.5c-0.5,0-0.9-0.1-1.4-0.1c-2.5-0.2-5.1-0.3-7.5-0.6
	c-2.2-0.2-4.5-0.3-6.8-0.6c-0.9-0.1-2-0.1-2.9-0.2c-2.2-0.1-4.4-0.3-6.6-0.6c-1.4-0.2-2.8-0.3-4.2-0.5c-1.6-0.1-3.3-0.2-5-0.5
	c-2.5-0.2-5-0.6-7.4-0.8c-2.5-0.3-5.1-0.6-7.5-0.9c-0.2,0-0.6-0.1-0.8-0.1c-2.3-0.2-4.7-0.6-7.2-0.9c-0.2-0.1-0.5-0.1-0.7-0.1
	l-7.3-1c-0.1,0-0.3-0.1-0.6-0.1c-2.2-0.2-4.3-0.6-6.4-0.9c-1-0.1-2-0.3-2.9-0.5c-1.7-0.2-3.3-0.6-5-0.8l-2.1-0.3
	c-2.2-0.5-4.3-0.8-6.4-1.2c-0.1,0-0.3-0.1-0.5-0.1c-2-0.3-4-0.8-6.1-1.2l-3.5-0.7c-1.7-0.3-3.5-0.7-5.1-1c-0.9-0.2-1.7-0.3-2.7-0.6
	c-1.8-0.3-3.6-0.7-5.3-1h-0.1l-6.6-1.4c-0.8-0.2-1.6-0.3-2.4-0.6c-1.5-0.3-3-0.7-4.4-1c-1.2-0.2-2.2-0.5-3.2-0.7h-0.1
	c-1.8-0.3-3.7-0.8-5.5-1.3c-2.3-0.6-4.5-1.2-6.8-1.7c-3-0.8-5.9-1.5-8.8-2.3c-2-0.6-3.9-1-5.9-1.6c-0.1-0.1-0.2-0.1-0.3-0.1
	l-6.2-1.7c-0.6-0.2-1.3-0.3-1.8-0.6c-1.6-0.6-3.2-1-4.9-1.5c-2.4-0.7-4.9-1.4-7.3-2.2c-1-0.2-2.1-0.6-3.1-0.9c-1-0.3-2-0.6-2.9-0.9
	l-3.1-1c-3.6-1.2-7-2.4-10.5-3.6c-0.9-0.3-2-0.7-3-1c-3.5-1.2-6.9-2.4-10.3-3.7c-1.2-0.5-2.2-0.8-3.3-1.3c-1.5-0.5-2.9-1-4.4-1.6
	c-1-0.3-2-0.8-3-1.2c-3.5-1.4-6.7-2.7-10-4c-1.2-0.5-2.2-0.9-3.3-1.4c-3.1-1.3-6.4-2.7-9.5-4c-1-0.3-2-0.8-3-1.3
	c-0.8-0.3-1.5-0.7-2.3-1l-3.1-1.4c-5.7-2.5-11.2-5.1-16.6-7.7c-1.3-0.7-2.7-1.3-3.9-2c-4.3-2.1-8.5-4.3-12.7-6.5
	c-1-0.6-2.2-1.2-3.2-1.7c-1.5-0.8-2.9-1.5-4.3-2.3c-1.2-0.7-2.4-1.3-3.6-2c-2.5-1.5-5.2-2.9-7.7-4.4c-1.2-0.6-2.3-1.3-3.5-2
	c-0.3-0.1-0.6-0.3-0.8-0.5c-1.2-0.7-2.2-1.3-3.3-2c-1.3-0.7-2.5-1.4-3.8-2.2c-1-0.6-2.1-1.3-3.1-1.8c-0.3-0.2-0.8-0.5-1.2-0.7
	c-1-0.7-2.1-1.3-3.1-2c-1.3-0.8-2.4-1.5-3.7-2.3c-1.3-0.7-2.4-1.5-3.6-2.2c-0.1-0.1-0.2-0.1-0.3-0.2c-1.2-0.7-2.3-1.5-3.5-2.2
	c-1.3-0.8-2.5-1.6-3.7-2.4c-2.4-1.6-4.7-3.2-7.2-4.9c-1.2-0.8-2.4-1.6-3.6-2.4c-1.3-0.8-2.4-1.6-3.6-2.4l-3.5-2.4
	c-1.2-0.8-2.3-1.7-3.5-2.5c-1-0.8-2-1.5-3-2.2c-0.3-0.2-0.8-0.5-1.2-0.8l-2.8-2.1c-1.2-0.8-2.3-1.7-3.5-2.5c-1-0.8-2.2-1.7-3.4-2.5
	c-2.2-1.7-4.5-3.5-6.7-5.2c-0.8-0.7-1.7-1.4-2.5-2.1l-1.7-1.4l-5.5-4.5c-1-0.9-2-1.7-3-2.5c-0.2-0.1-0.3-0.3-0.6-0.5
	c-1-0.8-2-1.6-2.9-2.4c-1.2-0.8-2.2-1.7-3.2-2.7c-0.9-0.7-1.7-1.5-2.7-2.2c-2.3-2-4.5-4-6.8-6l-3.1-2.8c-6.1-5.5-12.2-11.2-18.1-17
	c-2-1.8-3.9-3.8-5.9-5.8l-11.4-11.8c-2-2-3.9-4-5.8-6.1c-22.1-23.9-41.9-49.1-59.7-75.1c-4.4-6.6-8.8-13.2-12.9-19.8
	c-2.8-4.4-5.5-8.8-8.2-13.3c-5.3-8.9-10.5-17.9-15.4-26.9c-1.2-2.3-2.4-4.5-3.6-6.8c0-0.1-0.1-0.2-0.1-0.3c-4.7-8.9-9.2-18-13.5-27
	c-1.2-2.3-2.2-4.6-3.2-6.9c-3.1-6.8-6.2-13.7-9.1-20.7C64.1,571,58.5,556.4,53.5,541.7L53.5,541.7z"/>
<path class="st1" d="M107.6,113.6c3.6-2.3,7.2-4.5,11-6.2c0,0,72.9-43.4,156.8-7.7c136,57.9,46,317.2,160.2,364.5
	C549,510.9,826.3,252,992.1,501c-173.9-216.1-446.6,33.3-560.4-13.7c-118.9-49.1-25.3-318.7-166.6-378.9
	C191.8,77.1,126.3,104.2,107.6,113.6L107.6,113.6z"/>
<path class="st2" d="M4.7,286.3c0.9-16.9,2.7-33.7,6-50.2c5.1-28.5,13.2-56.9,27.1-82.5c12.2-22.3,29.3-42.7,52.4-53.9
	c-3.6,4.5-6.5,9.7-7.7,15.4c-5.9,25.4,21.7,45.5,39.6,57.8c28.3,19.4,59.4,34.3,88.6,52.3c22.9,14.1,51.3,32.1,50.4,62.5
	c-0.5,16.7-7.7,32.7-14.8,47.6c-8.3,17.3-17.3,34.4-23.9,52.6c-11.3,31.3-15.4,74.5,13.3,98.1c11.4,9.5,26.1,14.4,40.5,17.1
	c18.1,3.3,37,3.6,55.4,2.4c43.5-2.5,86.8-12.1,128.9-23.2c49.6-13.1,98.2-29.1,146.6-45.9c53.5-18.5,108.4-36.3,165.1-40.7
	c46.3-3.6,93,3.2,134.2,25.5c-17.6,2.4-34.9,6.4-51.5,12.6c-25.9,9.6-48.9,25-66.9,45.9c-14.8,17.1-25.5,36.8-36.4,56.4
	c-5,8.8-9.9,17.6-15.6,25.9c-9,13.1-20,25.2-31.4,36.2c-14.7,14.1-35.5,31.7-57.5,27c-14.8-3.1-25.4-15.2-35.6-25.5
	c-9.6-9.7-20.8-20.8-35.5-20.1c-12.2,0.7-25,8.2-34.2,15.7c-10.6,8.7-18.3,20-25.9,31.3c-7.6,11.3-15.7,22.3-27,30.1
	c-12.6,8.8-27.7,13.2-42.7,15.8c-22.3,3.9-45.1,2.2-65.8-6.9c-18.6-8.2-34.4-21.4-48.3-35.9c-14-14.8-26.3-31.1-39-47
	c-11.6-14.3-23.4-28.9-38.2-40.1c-13.2-9.9-28.8-16.3-45.5-15.4c-9.8,0.5-19.4,3.2-28.3,7c-7.2,3-14.6,5.9-22.5,4.6
	c-14.4-2.3-21-17.7-24.6-30.3c-5.7-20.3-6.7-41.8-7.6-62.7c-0.9-23.4-0.9-46.9-2.1-70.3c-0.9-17.9-1.5-37.4-8.1-54.4
	c-1.2-2.9-2.4-5.7-4.3-8.2c-5.8-8.1-12.6-15.7-19.8-22.8c-9.9-9.8-21.7-19.1-35.5-22.9c-8.7-2.4-17.8-2.2-26.1,1.2
	c-5.5,2.3-10.6,5.7-15.1,9.6c-2.7,2.3-5,4.9-7.6,7.3C7,285.8,5.4,287.8,4.7,286.3L4.7,286.3z"/>
<path d="M223.8,264.6C189.1,209.3,16.7,161.1,65.3,93.4L66,93c0.1-0.1,0.2-0.1,0.3-0.2s0.3-0.2,0.6-0.4c0.1-0.1,0.3-0.1,0.5-0.2
	c0.3-0.2,0.8-0.6,1.4-0.9c0,0,0.1-0.1,0.2-0.1l0.7-0.4c0.2-0.2,0.5-0.4,0.8-0.5c0.2-0.1,0.3-0.2,0.6-0.4c1-0.5,2.1-1.1,3.4-1.7
	c0.2,0,0.5-0.1,0.7-0.2s0.6-0.2,0.8-0.4c0.2,0,0.3-0.1,0.6-0.2c1.7-0.9,3.6-1.7,5.8-2.7c0.7-0.2,1.2-0.5,1.8-0.7l1-0.4l1-0.5
	c0.5-0.2,0.8-0.4,1.1-0.5c0.3-0.2,0.8-0.4,1.1-0.5c0.5-0.1,0.9-0.4,1.4-0.5c0.2-0.1,0.6-0.2,0.9-0.4c0.3-0.2,0.8-0.4,1.1-0.5
	c2-0.9,4.3-1.6,6.6-2.3c0.6-0.1,1.1-0.4,1.7-0.5c1.5-0.5,3-1,4.6-1.5l1.4-0.4c0.9-0.2,1.8-0.5,2.8-0.7c0.9-0.2,1.9-0.5,2.9-0.7
	c0.5-0.1,1-0.2,1.5-0.4l3-0.7c0.6-0.1,1-0.2,1.6-0.4c0.8-0.1,1.6-0.4,2.4-0.5c0.8-0.2,1.6-0.4,2.4-0.5c2.4-0.5,4.7-0.9,7.2-1.2
	c0.7-0.1,1.2-0.1,1.8-0.2c11.4-1.5,23.9-2,37.2-0.9c0.8,0.1,1.5,0.1,2.1,0.2c0.7,0.1,1.5,0.1,2.1,0.2c0.8,0.1,1.5,0.1,2.1,0.2
	c3,0.4,6.1,0.7,9.1,1.4l2,0.4c0.6,0.1,1.2,0.2,1.8,0.4c0.8,0.1,1.6,0.4,2.3,0.5c0.6,0.1,1.2,0.2,1.8,0.4c0.3,0.1,0.7,0.1,1,0.2
	c1.2,0.4,2.6,0.6,3.8,1c4,1.1,7.9,2.3,11.9,3.7l2,0.7l2,0.7c0.9,0.4,1.9,0.7,2.8,1.1c0.9,0.2,1.7,0.6,2.6,1h0.1
	c0.3,0.1,0.8,0.4,1.1,0.5c1.6,0.7,3.3,1.5,4.9,2.2c1,0.6,2.1,1.1,3.2,1.6c0.9,0.5,1.7,0.9,2.6,1.4c0.5,0.1,0.9,0.4,1.2,0.6
	c1,0.5,2,1.1,3,1.7c0.5,0.2,0.9,0.6,1.4,0.9c0.5,0.4,1,0.6,1.5,1c0.3,0.2,0.8,0.5,1.1,0.7c0.5,0.2,0.9,0.6,1.4,0.9
	c0.8,0.6,1.7,1.1,2.5,1.7c0.9,0.6,1.8,1.4,2.7,2c0.9,0.7,1.7,1.4,2.5,2l3,2.6c0.8,0.6,1.6,1.4,2.3,2c0.8,0.7,1.6,1.4,2.3,2.1
	l0.3,0.4c0.7,0.7,1.5,1.5,2.1,2.2l2.3,2.5c0.8,0.9,1.6,1.6,2.3,2.5c0.6,0.7,1.2,1.5,1.8,2.2c0.3,0.4,0.6,0.7,0.9,1.1
	c0.5,0.6,1,1.2,1.5,1.8c0.7,0.9,1.4,1.8,2,2.7c4.6,6.3,8.7,13.1,12.4,20.3l3,6.3c2.1,4.7,4.2,9.5,6,14.4c0.2,0.6,0.5,1.4,0.7,2
	c0,0.1,0.1,0.2,0.1,0.4c0.5,1.1,0.8,2.1,1.1,3.2c0.3,1.1,0.8,2.3,1.1,3.5c0.7,2.3,1.5,4.7,2.1,7c1.1,3.6,2.1,7.3,3,11
	c0.7,2.5,1.2,4.8,1.8,7.3c0.9,3.8,1.7,7.5,2.5,11.3c0.5,2.5,1,5.1,1.5,7.6c0.2,1.2,0.5,2.3,0.7,3.6c0.3,1.4,0.6,2.8,0.8,4.2
	c0.2,1.4,0.5,2.6,0.7,3.9c0.5,2.6,0.8,5.3,1.2,7.9c0.2,1.7,0.6,3.6,0.8,5.3c0.7,4.8,1.4,9.7,1.9,14.7c0.1,1.4,0.3,2.7,0.5,4.1
	c0.1,1.4,0.3,2.7,0.5,4.1c0.3,2.7,0.6,5.4,0.9,8.1c0.2,2.3,0.6,4.8,0.8,7.3c1.1,9.6,2,19.4,3,29.1c0.5,4.1,0.8,8,1.2,12.1
	c0.9,8,1.8,15.9,2.7,23.8l0.7,5.5c0.2,2.1,0.6,4.1,0.8,6v0.1c0.3,2.5,0.7,5.1,1,7.5c0.2,1.4,0.3,2.6,0.6,3.9
	c1.4,9.1,2.9,18.1,4.7,26.8c0,0.5,0.1,0.9,0.2,1.4c0.5,2.1,0.9,4.2,1.4,6.2c0.1,0.1,0.1,0.2,0.1,0.4l1,4.1c0.1,0.7,0.3,1.6,0.6,2.3
	l2.4,8.5c0.5,1.5,0.9,3,1.4,4.3l0.3,1.1l0.7,2.2c0,0.2,0.1,0.6,0.2,0.9c0.2,0.7,0.6,1.5,0.8,2.2c0.9,2.8,2,5.7,3.2,8.4
	c0.2,0.7,0.6,1.5,0.9,2.2c0,0.1,0.1,0.4,0.2,0.6c0.2,0.6,0.6,1.4,0.9,2.1c1.2,2.6,2.5,5.1,3.7,7.5c0.2,0.5,0.6,1.1,0.8,1.6
	c2.4,4.2,4.9,8.1,7.6,12c0.2,0.4,0.6,0.9,0.9,1.2c0.8,1,1.7,2.1,2.5,3.1c0.3,0.2,0.6,0.6,0.8,0.9c0.1,0.2,0.3,0.5,0.5,0.6
	c0.5,0.5,0.8,1,1.2,1.5c1.1,1.4,2.4,2.7,3.6,3.9c0.7,0.7,1.4,1.4,2,2c0,0.1,0.1,0.1,0.1,0.1c2.1,2.1,4.4,3.9,6.8,5.7
	c0.1,0.2,0.3,0.4,0.6,0.5h0.1c0.5,0.4,0.9,0.6,1.4,1c0.6,0.4,1,0.6,1.5,1h0.1c0.3,0.2,0.6,0.5,0.9,0.6c0.1,0.1,0.3,0.2,0.6,0.4
	c0.6,0.4,1.2,0.7,1.8,1.1c0.5,0.2,0.8,0.5,1.2,0.7c0.3,0.1,0.7,0.4,1,0.5c0.1,0.1,0.3,0.2,0.6,0.4l2,1.1c0.2,0,0.3,0.1,0.6,0.2
	l2.4,1.1c0.5,0.2,0.9,0.5,1.4,0.6s0.9,0.4,1.4,0.5c0.9,0.4,1.7,0.7,2.6,1c0.2,0.1,0.6,0.1,0.8,0.2c0.5,0.1,1,0.4,1.6,0.5
	c0.6,0.2,1,0.4,1.6,0.5c0.3,0,0.8,0.1,1.1,0.2c0.6,0.1,1,0.2,1.5,0.4c2.6,0.6,5.2,1.1,7.8,1.5c0.2,0.1,0.3,0.1,0.6,0.1
	c1.4,0.2,2.8,0.4,4.3,0.5c4.2,0.2,8.5,0.4,12.9,0.2c2.7-0.1,5.4-0.2,8.1-0.5c0.7,0,1.2,0,1.9-0.1c1.4-0.1,2.7-0.4,4.1-0.5
	c0.7,0,1.4-0.1,2-0.2c0.8,0,1.5-0.1,2.1-0.2c1.5-0.2,2.8-0.5,4.3-0.7l2-0.4c0.9-0.1,1.8-0.4,2.7-0.5c2.9-0.5,5.8-1.2,8.7-1.8
	c0.8-0.2,1.7-0.4,2.5-0.6c0.9-0.2,1.9-0.5,2.8-0.7c2.5-0.7,5.1-1.4,7.7-2.1c1.5-0.4,2.9-0.7,4.4-1.2c2.9-0.9,6-1.7,9-2.7
	c-107.7,36.4-271.4,80.2-296.7-4.8S258.6,319.7,223.8,264.6L223.8,264.6z"/>
<path class="st3" d="M63.5,558.7c3.5,5.7,6.8,11.3,10.2,17c5.8,9.8,11.7,19.6,17.7,29.3c16.3,26.7,32.7,53.9,52.2,78.6
	c8.5,10.9,18.5,22.2,31.5,27.6c12.1,5.1,26,4.6,38.8,6.2c21.3,2.7,42.6,8.4,60.9,19.9c13.9,8.8,25.4,20.4,37.2,31.9
	c12.2,11.9,25.3,22.9,40.8,30.5c20.6,10,44,14.4,66.8,15.4c18.3,0.8,36.2-2.1,54.2-4.5c17.3-2.3,34.4-2.7,51.4,1.6
	c23.8,6,46.2,18.3,67,31c16.4,10,31.8,21.6,48.4,31.2c12.6,7.3,26.3,12.8,41.1,11.8c18.6-1.3,36.4-11.3,51.3-21.9
	c9.6-6.8,17.6-15.8,23.3-26.1c11.6-20.3,15.2-43.9,21.9-66.1c8-26,20.6-49.6,41.8-67.1c14.3-11.8,31-20.4,48.2-27
	c20-7.7,41.2-14.4,62.8-12c40.7,4.6,75,36,81.9,76.5c4.2,23.7-1.2,48.1-11.2,69.7c-5.7,12.1-13.9,22.8-22.2,33.3
	c-8.3,10.4-17.1,20.3-26.3,29.8c-37.2,38.2-82,69.5-131.3,90.1c-24.6,10.2-50.5,17.7-76.8,21.5c-24.7,3.6-49.7,3.1-74.5,2.1
	c-52.4-2.1-104.7-8.8-155.6-21.3c-52.2-13.2-103-31.6-150.6-56.7c-45.2-23.7-87.3-52.8-125.5-86.8c-41.9-37.4-78.7-80.4-109.5-127.4
	c-31.8-48.3-57.3-100.6-76.1-155.3C56.3,547.6,60.3,553.2,63.5,558.7z"/>
<path d="M245.1,774.6c-5.3-4.5-13.4-3.9-18,1.6c-4.5,5.3-3.9,13.4,1.4,17.9c56.3,48.3,120.8,85.9,192,111.7
	c78.1,28.4,164.8,42.7,257.8,42.7c58.6,0,119.7-19.5,176.6-56.6C909.5,856.5,956,807,985.7,752.7c23.6-42.9,36-86.6,37.1-130.2
	c1.2-47.8-11.6-92.9-37.8-134c-32-50.2-71.2-85.4-116.3-104.2c-38.5-16.1-81.3-21-131.1-15.1c-6.9,0.8-11.9,7.2-11.1,14.1
	c0.8,6.9,7.2,11.9,14.1,11.1c45.3-5.4,84-1,118.3,13.3c40.8,17.1,75.1,47.9,104.8,94.4c23.6,36.7,34.9,77,33.8,119.7
	c-1,39.5-12.5,79.4-34,118.6c-27.7,50.7-71.3,96.8-122.3,130.1c-52.9,34.3-109.2,52.4-162.9,52.4c-90,0-173.9-13.9-249.2-41.2
	C361,856.8,299,820.9,245.1,774.6L245.1,774.6z M18.6,159C1.1,214.6-3.4,287.2,5.9,363.2c10,82.3,35.3,165.7,73.2,241.1
	c2.2,4.4,6.5,7.1,11.2,7.1c2.1,0,4-0.6,5.9-1.6c6.2-3.4,8.5-11.4,5.3-17.9C65.1,519.5,40.8,439.3,31,360
	c-8.9-72.4-4.7-140.9,11.6-192.8c13.3-42.4,33.7-71.6,59.4-84.6c0.3-0.1,0.6-0.2,0.9-0.5c0.2-0.1,17.4-10.6,43.8-16.7
	c35.3-8.1,69.5-5.1,101.7,9.3c64.1,28.6,73.1,113.2,81.8,195c4.3,40.4,8.3,78.5,18.6,111.2c12.2,38.8,31.9,63.7,60.1,75.9
	c34.4,14.9,79.9,4.6,137.6-15.4c6.7-2.3,10.3-9.8,8.1-16.8c-1-3.4-3.3-6.2-6.4-7.7c-3-1.6-6.5-1.8-9.7-0.7
	c-52.3,18.2-92.8,27.8-119.9,16.1c-47.7-20.7-55.2-91-63.1-165.4c-4.6-43.1-9.4-87.6-22.2-125.9c-15.1-45.3-39.6-74.9-74.9-90.6
	C212,29.7,168.9,33.2,140.8,39.8c-28,6.5-46.4,17.1-50.2,19.4C58.9,75.3,33.9,109.8,18.6,159L18.6,159z"/>
</svg>
